<svg xmlns="http://www.w3.org/2000/svg" width="256" height="256"><path fill="#1976D2" fill-opacity=".016" fill-rule="evenodd" d="M0 128.004v128.004l128.25-.254 128.25-.254.254-127.75L257.008 0H0v128.004m.485.496c0 70.4.119 99.053.265 63.672.146-35.38.146-92.98 0-128C.604 29.153.485 58.1.485 128.5"/><path fill="#1976D2" fill-opacity=".071" fill-rule="evenodd" d="M127.5.626c-16.499 1.749-35.691 7.101-50 13.943-33.426 15.983-57.4 47.678-65.217 86.221-2.489 12.272-2.482 44.205.012 56.21 3.765 18.127 10.267 33.698 19.91 47.684 5.771 8.37 19.698 22.139 28.297 27.976 14.193 9.635 33.317 17.285 52.498 21 13.52 2.619 48.884 2.629 60.768.018 23.97-5.267 46.117-16.566 64.666-32.993 5.773-5.112 6.566-6.245 6.566-9.379 0-3.245-1.506-5.148-16.75-21.163C200.089 160.557 199.518 160 197.334 160c-1.144 0-5.138 2.507-8.877 5.571C175.683 176.042 164.673 180 148.316 180c-16.625 0-27.618-4.09-37.272-13.866-9.344-9.464-14.001-22.101-14.029-38.07-.028-16.046 4.974-28.934 14.907-38.408 10.685-10.192 22.672-14.232 39.578-13.341 14.241.751 24.377 4.575 34.949 13.186 9.1 7.413 7.93 8.102 33.392-19.665C237.561 50.512 242 45.118 242 42.904c0-2.028-1.358-4.055-5.081-7.586-16.626-15.765-41.124-27.94-66.103-32.851C162.739.879 135.881-.262 127.5.626"/><path fill="#1976D2" fill-opacity=".241" fill-rule="evenodd" d="M129.492 1.027C95.672 3.814 67.443 16.26 45.913 37.875 21.558 62.328 10.55 90.736 10.603 129c.045 31.841 7.566 56.402 23.964 78.25 18.184 24.229 44.635 39.586 79.933 46.408 13.023 2.517 45.73 2.494 57.5-.04 12.174-2.622 23.189-6.251 32.735-10.786C222.708 234.293 245 216.677 245 211.013c0-2.213-4.368-7.323-22.55-26.379-25.708-26.943-25.222-26.651-32.802-19.664-17.449 16.085-44.749 20.455-66.257 10.609-11.217-5.136-21.375-17.851-24.893-31.16-1.847-6.987-2.123-23.723-.51-30.888 1.864-8.282 6.77-17.232 12.849-23.445 9.783-9.998 20.781-14.185 37.363-14.222 15.772-.036 28.305 4.566 40.23 14.772 4.77 4.083 7.425 4.231 11.066.614 5.3-5.265 41.01-44.451 41.844-45.918 1.688-2.968-.538-6.45-8.414-13.156-20.963-17.851-48.124-28.758-77.572-31.149C148.4.462 141.762.064 140.605.143c-1.158.078-6.159.476-11.113.884"/><path fill="#1976D2" fill-opacity=".175" fill-rule="evenodd" d="M119 2.62c-42.715 6.4-76.481 29.625-94.549 65.03-4.898 9.598-9.405 22.774-11.578 33.85-2.15 10.958-1.872 46.798.441 57 6.017 26.533 16.144 45.081 33.91 62.105 24.048 23.045 55.761 34.538 95.776 34.712 37.627.163 65.911-10.211 94.184-34.544 6.73-5.792 8.782-9.26 7.156-12.091-.462-.804-10.724-11.862-22.804-24.572-23.862-25.108-24.744-25.719-29.612-20.521-4.369 4.666-16.878 12.315-23.718 14.503-9.353 2.991-25.537 3.701-34.218 1.501-9.807-2.485-16.871-6.35-23.266-12.727-15.203-15.161-19.161-43.171-9.118-64.529 3.615-7.69 14.36-18.516 21.722-21.886 20.374-9.328 44.364-6.237 62.925 8.105 9.421 7.279 8.229 7.971 33.103-19.207 24.784-27.08 24.514-26.549 17.054-33.544-17.865-16.751-41.98-28.36-68.257-32.861C154.579.619 133.287.479 119 2.62"/></svg>