<svg xmlns="http://www.w3.org/2000/svg" width="256" height="256"><path fill="#1976D2" fill-opacity=".016" fill-rule="evenodd" d="M0 128.004v128.004l128.25-.254 128.25-.254.254-127.75L257.008 0H0v128.004m.485.496c0 70.4.119 99.053.265 63.672.146-35.38.146-92.98 0-128C.604 29.153.485 58.1.485 128.5"/><path fill="#1976D2" fill-opacity=".127" fill-rule="evenodd" d="M112.5 1.405c-17.736 2.98-31.368 8.122-44.862 16.923-16.62 10.839-28.795 24.92-38.194 44.172-10.355 21.212-13.95 40.462-13.167 70.5.696 26.694 4.198 42.927 13.178 61.084 6.285 12.709 11.806 20.372 21.95 30.469 24.32 24.206 59.89 35.306 97.499 30.424 36.308-4.713 66.345-25.435 81.862-56.477 3.489-6.979 7.687-19.931 8.671-26.75l.686-4.75h-53.648l-1.88 6.566c-3.394 11.85-12.79 23.459-23.297 28.783-9.247 4.686-15.895 6.087-28.798 6.07-10.451-.013-13.011-.366-19.828-2.736-9.977-3.468-16.829-7.874-23.349-15.015-6.698-7.335-10.5-14.082-14.194-25.189-4.327-13.009-5.465-22.895-4.869-42.304.415-13.509.996-18.521 3.062-26.399 8.599-32.795 32.299-51.332 63.184-49.419 21.05 1.303 36.255 10.487 44.63 26.956 1.626 3.197 3.448 8.259 4.048 11.25L186.276 91h53.9l-.653-4.25c-5.185-33.735-23.895-60.021-53.023-74.493C170.216 4.166 156.461.98 135.5.445c-9.683-.248-17.836.093-23 .96"/><path fill="#1976D2" fill-opacity=".092" fill-rule="evenodd" d="M118.5 1.052C79.9 4.769 47.517 26.951 30.255 61.5c-17.745 35.514-19.001 89.641-2.948 127.022 16.747 38.997 49.595 62.472 93.058 66.504 48.971 4.543 91.788-18.05 110.69-58.407 4.063-8.674 7.945-21.305 7.945-25.849V168h-16.846c-9.266 0-20.89-.287-25.831-.638l-8.984-.637-2.341 7.28c-7.172 22.305-26.058 35.02-51.958 34.98-25.578-.039-44.212-11.724-54.954-34.458-12.439-26.328-11.672-70.244 1.677-95.99 7.539-14.54 22.194-26.098 38.211-30.135 8.963-2.26 27.154-1.5 35.445 1.479 17.061 6.132 27.924 18.424 32.584 36.869l1.074 4.25h52.208l-.639-6.113c-.82-7.845-6.756-25.598-11.242-33.624-14.336-25.642-39.877-42.992-71.656-48.674C144.733.619 129.516-.008 118.5 1.052"/><path fill="#1976D2" fill-opacity=".105" fill-rule="evenodd" d="M116.358 2.34c-.827.462-2.595.566-3.93.231-1.459-.366-2.428-.174-2.428.482 0 .599-1.013.959-2.25.799-1.237-.159-2.842.078-3.567.529-.724.451-1.582.553-1.908.228-.325-.325-1.206-.081-1.957.542-.752.624-1.652.849-2 .5-.349-.348-1.238-.132-1.976.48C95.604 6.744 95 6.91 95 6.5c0-.41-.675-.185-1.5.5s-1.5.91-1.5.5c0-.41-.675-.185-1.5.5s-1.507.852-1.515.372c-.009-.479-.387-.287-.84.428-.454.715-1.797 1.373-2.985 1.463-1.188.089-2.16.543-2.16 1.009 0 .465-.45.568-1 .228-.55-.34-1-.115-1 .5s-.45.84-1 .5c-.55-.34-1-.115-1 .5s-.45.84-1 .5c-.55-.34-1-.115-1 .5s-.45.84-1 .5c-.55-.34-1-.066-1 .608 0 .674-.273.952-.606.619-.334-.334-1.527.251-2.652 1.299-1.125 1.047-2.38 1.698-2.789 1.445-.409-.253-1.012.241-1.341 1.098-.329.857-1.004 1.307-1.5 1-.496-.307-1.16.115-1.476.937-.315.822-1.154 1.494-1.864 1.494-.71 0-1.853.9-2.54 2s-1.704 2-2.261 2c-.557 0-3.366 2.544-6.242 5.654a2258.85 2258.85 0 0 1-7.334 7.9c-1.157 1.236-2.381 2.966-2.718 3.846-.338.88-1.078 1.6-1.646 1.6-.567 0-1.031.675-1.031 1.5s-.45 1.5-1 1.5-1 .643-1 1.429c0 .785-.616 2.044-1.368 2.796-.753.753-1.683 2.36-2.067 3.572C33.18 58.008 32.419 59 31.874 59c-.546 0-.714.45-.374 1 .34.55.115 1-.5 1s-.84.45-.5 1c.34.55.141 1-.441 1s-.985.337-.895.75c.327 1.494-1.403 6.25-2.272 6.25-.491 0-.806.337-.702.75.388 1.526-1.379 7.25-2.238 7.25-.489 0-.648.629-.352 1.399.295.769.075 1.684-.488 2.032-.564.348-.771 1.294-.461 2.101.309.807.035 1.468-.611 1.468-.72 0-.929.775-.54 2 .38 1.198.18 2-.5 2-.663 0-.882.796-.527 1.916.335 1.054.122 2.216-.473 2.584-.595.368-.809 1.526-.476 2.575.333 1.049.249 2.474-.186 3.166-.435.692-.891 2.609-1.014 4.259-.123 1.65-.5 6.15-.837 10-.781 8.924-.781 20.076 0 29 .337 3.85.714 8.35.837 10 .123 1.65.579 3.567 1.014 4.259.435.692.519 2.117.186 3.166s-.119 2.207.476 2.575c.595.368.808 1.53.473 2.584-.365 1.152-.135 1.916.576 1.916.692 0 .967.832.661 2-.287 1.1-.067 2 .491 2 .557 0 .759.661.45 1.468-.31.807-.103 1.753.461 2.101.563.348.783 1.263.488 2.032-.296.77-.053 1.399.538 1.399.592 0 .828.646.525 1.435-.303.79-.139 1.577.364 1.75.503.173 1.063 1.215 1.243 2.315.18 1.1.852 2.953 1.494 4.119.641 1.165.881 2.402.534 2.75-.347.347-.08.631.594.631.674 0 .948.45.608 1-.34.55-.115 1 .5 1s.84.45.5 1c-.34.55-.115 1 .5 1s.84.45.5 1c-.34.55-.115 1 .5 1s.84.45.5 1c-.34.55-.172 1 .374 1 .545 0 1.302.978 1.681 2.173s1.463 3.003 2.407 4.017c.945 1.014 2.353 3.074 3.128 4.577.776 1.503 2.198 3.321 3.16 4.04.963.718 1.75 1.656 1.75 2.083 0 .728 12.954 14.11 13.658 14.11.35 0 8.562 6.081 11.842 8.77 1.1.901 2.018 1.434 2.041 1.184.059-.661 9.897 4.406 10.294 5.302.185.416.747.502 1.25.191s.915-.062.915.553.419.859.931.543c.512-.317 1.218-.111 1.569.457.351.568 1.057.774 1.569.457.512-.316.931-.113.931.453 0 .565.675.768 1.5.452.825-.317 1.5-.092 1.5.5 0 .591.629.834 1.399.538.769-.295 1.684-.075 2.032.488.348.564 1.294.771 2.101.461.807-.309 1.468-.035 1.468.611 0 .703.77.93 1.916.567 1.054-.335 2.193-.16 2.532.389.339.548 1.282.741 2.097.428.814-.312 2.093-.06 2.841.561.748.621 2.093.849 2.987.505.895-.343 2.414-.303 3.377.089 2.326.948 30.647.992 32.171.05.656-.406 2.265-.468 3.575-.139 1.31.328 2.683.109 3.052-.487.369-.597 1.746-.815 3.061-.485 1.47.369 2.391.163 2.391-.536 0-.643.867-.909 2-.612 1.1.287 2 .085 2-.451s.9-.688 2-.339c1.225.389 2 .18 2-.54 0-.646.675-.915 1.5-.598.825.316 1.5.091 1.5-.5 0-.592.675-.817 1.5-.5.825.316 1.5.113 1.5-.452 0-.566.45-.75 1-.41s1 .093 1-.548.675-.907 1.5-.59c.825.316 1.5.113 1.5-.452 0-.566.45-.75 1-.41s1 .115 1-.5.45-.84 1-.5c.55.34 1 .115 1-.5s.45-.84 1-.5c.55.34 1 .115 1-.5s.45-.84 1-.5c.55.34 1 .115 1-.5s.45-.84 1-.5c.55.34 1 .115 1-.5s.412-.864.915-.553c.503.311 1.065.219 1.25-.203.331-.76 10.501-8.244 11.202-8.244.64 0 16.321-15.999 15.716-16.033-.321-.019.41-.863 1.624-1.876 1.215-1.014 1.938-2.113 1.607-2.443-.33-.331.139-.885 1.043-1.231.904-.347 1.643-1.258 1.643-2.024s.45-1.393 1-1.393.917-.338.815-.75c-.181-.735 5.202-12.267 6.185-13.25.275-.275.654-1.4.842-2.5.187-1.1.725-2.142 1.193-2.315.469-.173.605-.96.302-1.75-.303-.789-.067-1.435.525-1.435.591 0 .816-.675.5-1.5-.317-.825-.048-1.5.598-1.5.703 0 .93-.77.567-1.916-.335-1.054-.133-2.21.449-2.569.581-.359.786-1.092.454-1.628-.331-.536-.106-1.573.501-2.304.607-.731.82-2.069.473-2.973-.566-1.475-3.255-1.616-26.267-1.377-20.943.218-25.585.515-25.352 1.622.157.746-.236 1.983-.872 2.75-.637.767-.823 1.395-.413 1.395s.244.604-.369 1.342c-.612.738-.818 1.638-.456 2 .362.362.107.658-.567.658-.674 0-.948.45-.608 1 .34.55.115 1-.5 1s-.862.414-.55.919c.313.506-.111 1.599-.941 2.429-.83.83-1.509 1.991-1.509 2.581 0 .589-.45 1.071-1 1.071s-1 .611-1 1.357c0 1.43-11.209 12.118-12.366 11.791-.37-.104-1.649.72-2.842 1.831-1.945 1.812-3.847 2.486-6.042 2.139-.413-.065-.75.38-.75.989s-.675.848-1.5.531c-.825-.316-1.5-.091-1.5.5 0 .592-.675.817-1.5.5-.825-.316-1.5-.087-1.5.51s-.9.85-1.999.563c-1.099-.288-2.213-.177-2.474.245-.608.984-23.644.792-25.187-.209-.638-.415-1.875-.479-2.75-.143-.915.351-1.59.095-1.59-.604 0-.668-.631-.972-1.402-.676-.771.296-1.683.258-2.026-.085-.343-.343-1.624-.775-2.848-.96-1.223-.185-2.375-.777-2.559-1.314-.185-.538-.747-.723-1.25-.412s-.915.062-.915-.553-.45-.84-1-.5c-.55.34-1 .141-1-.441s-.675-1.059-1.5-1.059-2.4-.9-3.5-2-2.283-2-2.629-2c-1.12 0-10.319-9.464-10.345-10.643-.014-.629-.73-1.413-1.589-1.743-.86-.33-1.284-1.053-.941-1.607.342-.554.145-1.007-.437-1.007S81 182.325 81 181.5s-.525-1.5-1.167-1.5c-.641 0-.888-.279-.547-.619.34-.341-.039-1.277-.843-2.081-.804-.804-1.206-1.875-.893-2.381.312-.505.065-.919-.55-.919s-.864-.412-.553-.915c.311-.503.126-1.065-.412-1.25-.537-.184-1.182-1.46-1.432-2.835s-.544-2.613-.654-2.75c-.109-.137-.262-.588-.339-1-.077-.412-.498-1.312-.934-2-.437-.687-.535-1.669-.219-2.181.317-.512.088-1.232-.509-1.601-.596-.369-.848-1.285-.56-2.037.289-.752.058-1.655-.513-2.008-.57-.353-.767-1.717-.437-3.032.368-1.465.162-2.391-.53-2.391-.755 0-.908-1.188-.46-3.576.405-2.155.227-4.111-.447-4.922-.758-.915-.95-5.468-.595-14.175.288-7.055.551-14.495.584-16.534.034-2.039.502-3.979 1.04-4.311.537-.333.702-1.702.365-3.043-.389-1.55-.183-2.439.564-2.439.703 0 .932-.77.568-1.916-.335-1.054-.16-2.193.389-2.532.548-.339.743-1.277.433-2.084-.309-.807-.079-1.468.513-1.468.591 0 .816-.675.5-1.5-.317-.825-.092-1.5.5-1.5.591 0 .816-.675.5-1.5-.317-.825-.078-1.5.531-1.5s.994-.361.857-.802C75.362 84.951 80.232 75 81.23 75c.488 0 .652-.382.364-.848-.745-1.205 10.278-14.306 12.533-14.895 1.03-.27 1.873-.841 1.873-1.269 0-1.228 9.623-7.084 11.926-7.257 1.141-.086 2.074-.559 2.074-1.051 0-.492.675-.635 1.5-.318.825.316 1.5.091 1.5-.5 0-.592.675-.817 1.5-.5.825.316 1.5.087 1.5-.51s.9-.85 1.999-.563c1.099.288 2.213.178 2.474-.245.665-1.076 24.527-.966 24.527.113 0 .485 1.125.599 2.5.254 1.508-.379 2.5-.2 2.5.449 0 .593.675.818 1.5.502.825-.317 1.5-.092 1.5.5 0 .591.675.816 1.5.5.825-.317 1.5-.051 1.5.59s.45.888 1 .548c.55-.34 1-.115 1 .5s.45.84 1 .5c.55-.34 1-.115 1 .5s.45.84 1 .5c.55-.34 1-.115 1 .5s.38.883.845.596c1.055-.652 12.086 8.197 13.565 10.881.6 1.087 1.765 2.535 2.59 3.218.825.683 1.167 1.256.76 1.273-.407.018-.066.819.758 1.782.824.963 1.456 2.15 1.405 2.638-.052.489.383 1.183.966 1.544.583.36 1.263 1.76 1.511 3.111.248 1.352.541 2.569.651 2.707.109.138.312.7.449 1.25s.373 1.338.523 1.75c.15.412.319 1.65.375 2.75.099 1.938.896 2.008 25.739 2.267 23.012.239 25.701.098 26.267-1.377.347-.904.122-2.256-.499-3.004-.621-.748-.873-2.027-.561-2.841.313-.815.12-1.758-.428-2.097-.549-.339-.724-1.478-.389-2.532.35-1.103.136-1.916-.503-1.916-.612 0-1.02-.562-.907-1.25.112-.687-.322-2.525-.964-4.084-.642-1.559-.913-3.246-.601-3.75.311-.504.089-.916-.493-.916s-.963-.338-.847-.75c.117-.413-.317-1.703-.964-2.869-.648-1.165-.893-2.402-.546-2.75.347-.347.08-.631-.594-.631-.674 0-.948-.45-.608-1 .34-.55.115-1-.5-1s-.84-.45-.5-1c.34-.55.115-1-.5-1s-.84-.45-.5-1c.34-.55.115-1-.5-1s-.864-.412-.553-.915c.311-.503.219-1.065-.203-1.25-.735-.32-8.244-10.49-8.244-11.165 0-.756-14.421-14.67-15.204-14.67-.472 0-1.118-.675-1.434-1.5-.317-.825-1.118-1.5-1.78-1.5-.663 0-2.171-.9-3.352-2-1.18-1.1-2.615-2-3.188-2A1.054 1.054 0 0 1 192 15.941c0-.582-.45-.781-1-.441s-1 .115-1-.5-.45-.84-1-.5c-.55.34-1 .115-1-.5s-.45-.84-1-.5c-.55.34-1 .115-1-.5s-.45-.84-1-.5c-.55.34-1 .115-1-.5s-.45-.84-1-.5c-.55.34-1 .237-1-.228 0-.466-1.006-.922-2.235-1.015-1.23-.092-2.384-.613-2.565-1.156-.181-.544-.975-.741-1.765-.438-.789.303-1.435.067-1.435-.525 0-.591-.675-.816-1.5-.5-.825.317-1.5.092-1.5-.5 0-.591-.675-.816-1.5-.5-.825.317-1.5.092-1.5-.5 0-.591-.629-.834-1.399-.538-.769.295-1.67.098-2.001-.438-.331-.536-1.502-.739-2.601-.451-1.132.296-1.999.03-1.999-.613 0-.699-.921-.905-2.391-.536-1.315.33-2.692.112-3.061-.485-.369-.596-1.742-.815-3.052-.487-1.31.329-2.927.262-3.593-.15-1.684-1.041-29.703-1.13-31.545-.1"/></svg>