<svg width="298" height="56" viewBox="0 0 298 56" fill="none" xmlns="http://www.w3.org/2000/svg">
<path d="M31.0886 40.6027C30.7042 40.1995 30.0629 40.1907 29.6698 40.5829C27.6998 42.5484 25.3829 43.5059 22.5849 43.5059C20.0966 43.5059 18.1618 42.7609 16.6706 41.2293C15.1706 39.689 14.4436 37.7038 14.4436 35.1599C14.4436 32.6182 15.1837 30.6331 16.7035 29.0949C18.2189 27.559 20.1449 26.814 22.5849 26.814C25.194 26.814 27.3968 27.6795 29.3206 29.463C29.7225 29.8355 30.3528 29.8114 30.7262 29.4061L37.2401 22.3112C37.6025 21.9168 37.5849 21.3077 37.2006 20.9352C35.1691 18.9588 32.8148 17.4426 30.2079 16.4281C27.6076 15.418 24.8426 14.9053 21.9875 14.9053C17.8499 14.9053 14.1427 15.762 10.967 17.4492C7.77158 19.1473 5.24596 21.5597 3.46485 24.6207C1.68813 27.6729 0.785492 31.2444 0.785492 35.2366C0.785492 39.2792 1.67275 42.8639 3.42532 45.8876C5.18666 48.9311 7.71448 51.3084 10.9429 52.9562C14.1383 54.5885 17.929 55.4168 22.2116 55.4168C28.194 55.4168 33.4143 53.2607 37.7299 49.0078C38.1142 48.6309 38.123 48.0152 37.754 47.6252L31.0886 40.6027Z" fill="#DD8900"/>
<path d="M69.2891 16.5442L68.8609 19.0289C67.5761 17.9246 66.12 17.0306 64.508 16.3601C62.2987 15.4421 59.8543 14.9775 57.2408 14.9775C53.6303 14.9775 50.3711 15.843 47.5578 17.5477C44.7423 19.2546 42.5154 21.6736 40.9407 24.7368C39.3792 27.7758 38.5864 31.2838 38.5864 35.1577C38.5864 39.0316 39.3792 42.5396 40.9407 45.5786C42.5176 48.644 44.7423 51.063 47.5578 52.7677C50.3711 54.4724 53.6303 55.3379 57.243 55.3379C61.8397 55.3379 65.7379 53.9575 68.8587 51.2273L69.2913 53.769C69.3726 54.2445 69.7855 54.5929 70.2687 54.5929H80.4502C80.9971 54.5929 81.4407 54.1503 81.4407 53.6047V16.7129C81.4407 16.1673 80.9971 15.7247 80.4502 15.7247H70.2665C69.7833 15.7247 69.3726 16.0709 69.2891 16.5442ZM60.0124 43.5058C57.6823 43.5058 55.8506 42.7543 54.4121 41.2074C52.9539 39.6407 52.2445 37.6621 52.2445 35.1577C52.2445 32.6554 52.9539 30.6769 54.4121 29.108C55.8506 27.5611 57.6823 26.8096 60.0124 26.8096C62.347 26.8096 64.194 27.5523 65.6588 29.0817C67.1369 30.6221 67.855 32.6094 67.855 35.1577C67.855 37.7038 67.1369 39.6911 65.6588 41.2337C64.1918 42.7631 62.3448 43.5058 60.0124 43.5058Z" fill="#DD8900"/>
<path d="M88.2884 1.35104V53.5806C88.2884 54.1394 88.743 54.5929 89.3031 54.5929H101.009C101.569 54.5929 102.023 54.1394 102.023 53.5806V1.35104C102.023 0.792306 101.569 0.338745 101.009 0.338745H89.3031C88.743 0.338745 88.2884 0.792306 88.2884 1.35104Z" fill="#DD8900"/>
<path d="M137.081 40.6027C136.697 40.1995 136.056 40.1907 135.663 40.5829C133.693 42.5484 131.376 43.5059 128.578 43.5059C126.089 43.5059 124.154 42.7609 122.663 41.2293C121.163 39.689 120.436 37.7038 120.436 35.1599C120.436 32.6182 121.176 30.6331 122.696 29.0949C124.212 27.559 126.138 26.814 128.578 26.814C131.187 26.814 133.389 27.6795 135.313 29.463C135.715 29.8355 136.346 29.8114 136.719 29.4061L143.233 22.3112C143.595 21.9168 143.578 21.3077 143.193 20.9352C141.162 18.9588 138.807 17.4426 136.201 16.4281C133.6 15.418 130.835 14.9053 127.98 14.9053C123.843 14.9053 120.135 15.762 116.96 17.4492C113.764 19.1473 111.239 21.5597 109.458 24.6207C107.681 27.6729 106.778 31.2444 106.778 35.2366C106.778 39.2792 107.665 42.8639 109.418 45.8876C111.179 48.9311 113.707 51.3084 116.936 52.9562C120.131 54.5885 123.922 55.4168 128.204 55.4168C134.187 55.4168 139.407 53.2607 143.723 49.0078C144.107 48.6309 144.116 48.0152 143.747 47.6252L137.081 40.6027Z" fill="#DD8900"/>
<path d="M184.607 24.5878C182.872 21.5465 180.344 19.1429 177.094 17.4426C173.87 15.7576 170.088 14.9031 165.856 14.9031C161.622 14.9031 157.851 15.7576 154.651 17.4448C151.427 19.1451 148.912 21.5487 147.179 24.5878C145.455 27.6137 144.579 31.1699 144.579 35.1599C144.579 39.1499 145.453 42.7061 147.179 45.7299C148.914 48.7711 151.429 51.1748 154.651 52.8729C157.851 54.56 161.622 55.4146 165.856 55.4146C170.088 55.4146 173.87 54.56 177.096 52.8751C180.346 51.1748 182.874 48.7711 184.609 45.7299C186.333 42.7061 187.209 39.1499 187.209 35.1599C187.207 31.1699 186.333 27.6137 184.607 24.5878ZM171.412 41.214C169.998 42.7565 168.179 43.5059 165.856 43.5059C163.581 43.5059 161.786 42.7565 160.374 41.214C158.938 39.6473 158.239 37.6666 158.239 35.1599C158.239 32.6533 158.938 30.6725 160.374 29.1059C161.788 27.5633 163.581 26.814 165.856 26.814C168.179 26.814 169.998 27.5633 171.412 29.1059C172.848 30.6747 173.549 32.6555 173.549 35.1621C173.549 37.6644 172.848 39.6451 171.412 41.214Z" fill="#DD8900"/>
<path d="M227.569 19.7958C224.714 16.5508 220.824 14.9031 216.008 14.9031C211.936 14.9031 208.477 16.0775 205.697 18.3979V1.32913C205.697 0.783547 205.253 0.340942 204.706 0.340942H192.955C192.408 0.340942 191.964 0.783547 191.964 1.32913V53.6069C191.964 54.1525 192.408 54.5951 192.955 54.5951H204.706C205.253 54.5951 205.697 54.1525 205.697 53.6069V34.1893C205.697 31.9368 206.31 30.1773 207.568 28.8101C208.807 27.4669 210.392 26.814 212.415 26.814C214.227 26.814 215.586 27.3618 216.57 28.4902C217.576 29.6449 218.086 31.3102 218.086 33.4421V53.6069C218.086 54.1525 218.529 54.5951 219.076 54.5951H230.828C231.375 54.5951 231.818 54.1525 231.818 53.6069V32.7694C231.821 27.3705 230.391 23.0036 227.569 19.7958Z" fill="#DD8900"/>
<path d="M276.155 24.5878C274.42 21.5465 271.892 19.1429 268.642 17.4426C265.418 15.7576 261.636 14.9031 257.404 14.9031C253.17 14.9031 249.399 15.7576 246.199 17.4448C242.975 19.1451 240.46 21.5487 238.728 24.5878C237.004 27.6137 236.127 31.1699 236.127 35.1599C236.127 39.1499 237.001 42.7061 238.728 45.7299C240.463 48.7711 242.977 51.1748 246.199 52.8729C249.399 54.56 253.17 55.4146 257.404 55.4146C261.636 55.4146 265.418 54.56 268.644 52.8751C271.895 51.1748 274.422 48.7711 276.157 45.7299C277.881 42.7061 278.758 39.1499 278.758 35.1599C278.753 31.1699 277.879 27.6137 276.155 24.5878ZM262.96 41.214C261.546 42.7565 259.728 43.5059 257.404 43.5059C255.129 43.5059 253.335 42.7565 251.922 41.214C250.486 39.6473 249.788 37.6666 249.788 35.1599C249.788 32.6533 250.486 30.6725 251.922 29.1059C253.337 27.5633 255.129 26.814 257.404 26.814C259.728 26.814 261.546 27.5633 262.96 29.1059C264.397 30.6747 265.097 32.6555 265.097 35.1621C265.095 37.6644 264.397 39.6451 262.96 41.214Z" fill="#DD8900"/>
<path d="M283.508 1.34666V53.585C283.508 54.1416 283.96 54.5929 284.518 54.5929H296.233C296.791 54.5929 297.243 54.1416 297.243 53.585V1.34666C297.243 0.790115 296.791 0.338745 296.233 0.338745H284.518C283.96 0.338745 283.508 0.790115 283.508 1.34666Z" fill="#DD8900"/>
</svg>
